<svg id="Layer_1" data-name="Layer 1" xmlns="http://www.w3.org/2000/svg" viewBox="0 0 800 300"><defs><style>.cls-1{fill:#333;}.cls-2{fill:#fdc314;}</style></defs><rect class="cls-1" x="95.08" y="90.68" width="147.85" height="118.64" rx="12.62"/><path class="cls-2" d="M168.91,186.85,196.65,154l-25.73-3.27-18.2,21.52c-8.65,10.23-16.36,10.71-23.35,4.8s-7.88-13.67.77-23.9l26.79-31.68-26.14-3.32-18,21.24c-15.06,17.82-13.1,36.58,4.55,51.5S153.85,204.67,168.91,186.85Z"/><path class="cls-2" d="M218.78,111.49c-17.52-15-36.36-14-51.56,3.67l-18.13,21.1,7.42,25.28,27-31.47c8.72-10.16,16.45-10.59,23.48-4.55s7.68,13.66-1.05,23.83l-18.36,21.37,7.3,24.89,28-32.59C238.13,145.33,236.31,126.55,218.78,111.49Z"/><path class="cls-2" d="M277.81,180.67a28.47,28.47,0,0,1-11.08-2.18,27.08,27.08,0,0,1-8.93-5.93,27.57,27.57,0,0,1-5.87-9,29,29,0,0,1-2.16-11.16,29.35,29.35,0,0,1,2.16-11.25,27.55,27.55,0,0,1,5.87-9,27.08,27.08,0,0,1,8.93-5.93A28.47,28.47,0,0,1,277.81,124a26.26,26.26,0,0,1,26.3,21.64H292.32a15.41,15.41,0,0,0-5.55-7.64,14.84,14.84,0,0,0-9-2.78,15.17,15.17,0,0,0-11.52,4.9,17.19,17.19,0,0,0-4.62,12.26,17,17,0,0,0,4.62,12.18,15.21,15.21,0,0,0,11.52,4.87,14.71,14.71,0,0,0,9.25-3,15.36,15.36,0,0,0,5.38-8.2H304.3a27,27,0,0,1-9.13,16.25A25.94,25.94,0,0,1,277.81,180.67Z"/><path class="cls-2" d="M336,136.6q7.09,0,11.24,4.7T351.36,154v25.46H340V155.92q0-4.77-1.76-7.08t-5.55-2.31a8.62,8.62,0,0,0-6.84,2.93q-2.56,2.94-2.56,8v22H312v-57h11.33v19A17.61,17.61,0,0,1,336,136.6Z"/><path class="cls-2" d="M395.88,137.51h8.49v41.91h-8.91l-1-3.75a20,20,0,0,1-13.57,5,22.27,22.27,0,0,1-11.25-2.88,20.49,20.49,0,0,1-7.88-8,22.82,22.82,0,0,1-2.84-11.35,22.55,22.55,0,0,1,2.84-11.27,20.47,20.47,0,0,1,7.88-7.92,22.36,22.36,0,0,1,11.25-2.86,20,20,0,0,1,13.76,5.12Zm-22.22,29.16a11.86,11.86,0,0,0,16.33,0,12.06,12.06,0,0,0,0-16.45,11.83,11.83,0,0,0-16.33,0,12,12,0,0,0,0,16.41Z"/><path class="cls-2" d="M415.24,132V121.48h11.29V132Zm0,47.47V137.58h11.33v41.91Z"/><path class="cls-2" d="M461.24,136.6q7.13,0,11.33,4.75t4.21,12.76v25.38H465.45V155.92q0-9.39-7.31-9.39a8.61,8.61,0,0,0-6.88,2.93q-2.52,2.94-2.52,8v22H437.41V137.58h7.77l2.2,5.2a16.94,16.94,0,0,1,6-4.53A18.62,18.62,0,0,1,461.24,136.6Z"/><path class="cls-2" d="M520,125.16v10.91H504.86v43.42H493.11V136.07H478V125.16Z"/><path class="cls-2" d="M545.93,137.36h3.71V148h-4.88q-4.78,0-6.84,2.26t-2.07,7.41v21.78H524.52V137.58h7.24l2,5.16Q538.09,137.36,545.93,137.36Z"/><path class="cls-2" d="M589.32,137.51h8.48v41.91h-8.9l-1-3.75a19.93,19.93,0,0,1-13.56,5,22.31,22.31,0,0,1-11.26-2.88,20.56,20.56,0,0,1-7.88-8,22.93,22.93,0,0,1-2.84-11.35,22.65,22.65,0,0,1,2.84-11.27,20.54,20.54,0,0,1,7.88-7.92,22.39,22.39,0,0,1,11.26-2.86,20,20,0,0,1,13.75,5.12Zm-22.23,29.16a11.86,11.86,0,0,0,16.33,0,12.06,12.06,0,0,0,0-16.45,11.83,11.83,0,0,0-16.33,0,12,12,0,0,0,0,16.41Z"/><path class="cls-2" d="M639.45,122.47h11.33v57H642.4L641.08,176a19.65,19.65,0,0,1-13.15,4.73,21.28,21.28,0,0,1-15.77-6.32,21.7,21.7,0,0,1-6.25-15.88,23.25,23.25,0,0,1,1.67-8.81,20.38,20.38,0,0,1,11.56-11.63,22.68,22.68,0,0,1,8.79-1.69,20.13,20.13,0,0,1,11.52,3.45Zm-18.74,44.29a11.83,11.83,0,0,0,16.33,0,12,12,0,0,0,0-16.4,11.83,11.83,0,0,0-16.33,0,12,12,0,0,0,0,16.44Z"/><path class="cls-2" d="M702.31,158.39a24.29,24.29,0,0,1-.23,3.33H670.37a10.53,10.53,0,0,0,3.42,6.58,10.23,10.23,0,0,0,6.84,2.29,10.64,10.64,0,0,0,5.25-1.29,9.25,9.25,0,0,0,3.62-3.56h11.9a21.4,21.4,0,0,1-20.77,14.93,21.66,21.66,0,0,1-11.08-2.9,20.75,20.75,0,0,1-7.82-8,23.78,23.78,0,0,1,0-22.54,20.51,20.51,0,0,1,7.8-8,22.93,22.93,0,0,1,22.41.09,20.49,20.49,0,0,1,7.7,8A22.93,22.93,0,0,1,702.31,158.39Zm-21.68-12.32a9.87,9.87,0,0,0-6.36,2.09,10.57,10.57,0,0,0-3.6,5.83H691a11.35,11.35,0,0,0-3.85-5.87A10.34,10.34,0,0,0,680.63,146.07Z"/></svg>