<svg id="Layer_1" data-name="Layer 1" xmlns="http://www.w3.org/2000/svg" viewBox="0 0 700 700"><defs><style>.cls-1{fill:#fdc314;}</style></defs><path class="cls-1" d="M353.18,471.37,447.39,360,360,348.85l-61.78,73.06c-29.38,34.73-55.59,36.39-79.32,16.32-24-20.32-26.75-46.45,2.62-81.18l91-107.58L223.75,238.2l-61,72.13c-51.16,60.5-44.48,124.21,15.43,174.87S302,531.86,353.18,471.37Z"/><path class="cls-1" d="M522.54,215.46c-59.51-51.13-123.47-47.63-175.1,12.46l-61.56,71.65,25.19,85.85,91.81-106.87c29.64-34.51,55.87-36,79.74-15.45,23.57,20.25,26.09,46.4-3.55,80.9l-62.36,72.58,24.81,84.53,95.09-110.67C588.23,330.35,582.05,266.59,522.54,215.46Z"/></svg>