<svg id="Layer_1" data-name="Layer 1" xmlns="http://www.w3.org/2000/svg" viewBox="0 0 700 700"><defs><style>.cls-1{fill:#fff;}</style></defs><path class="cls-1" d="M351.42,334.91l33.81-40-31.37-4-22.17,26.22c-10.54,12.47-19.94,13.06-28.46,5.86s-9.6-16.67.94-29.13l32.65-38.61-31.85-4-21.89,25.88c-18.36,21.71-16,44.57,5.54,62.75S333.06,356.62,351.42,334.91Z"/><path class="cls-1" d="M412.19,243.08c-21.35-18.35-44.31-17.09-62.83,4.47l-22.09,25.71,9,30.81,32.95-38.35c10.64-12.38,20.05-12.9,28.62-5.55s9.36,16.65-1.28,29l-22.37,26,8.9,30.33,34.12-39.71C435.77,284.31,433.55,261.42,412.19,243.08Z"/><path class="cls-1" d="M108.71,449.55a34.61,34.61,0,0,1-13.5-2.65,33,33,0,0,1-10.88-7.23,33.51,33.51,0,0,1-7.15-11,35.24,35.24,0,0,1-2.64-13.59,35.71,35.71,0,0,1,2.64-13.72,33.49,33.49,0,0,1,7.15-11,33.14,33.14,0,0,1,10.88-7.23,34.8,34.8,0,0,1,13.5-2.65,32,32,0,0,1,32.05,26.37H126.4a18.88,18.88,0,0,0-6.77-9.31,18.12,18.12,0,0,0-10.92-3.39,18.46,18.46,0,0,0-14,6A20.9,20.9,0,0,0,89,415.11,20.68,20.68,0,0,0,94.68,430a18.52,18.52,0,0,0,14,5.93A17.89,17.89,0,0,0,120,432.21a18.66,18.66,0,0,0,6.56-10H141A32.94,32.94,0,0,1,129.86,442,31.65,31.65,0,0,1,108.71,449.55Z"/><path class="cls-1" d="M179.59,395.85q8.64,0,13.69,5.73t5.06,15.51v31H184.53V419.4q0-5.82-2.14-8.64c-1.44-1.87-3.69-2.81-6.77-2.81a10.46,10.46,0,0,0-8.33,3.58q-3.12,3.57-3.12,9.76v26.83H150.36V378.63h13.81v23.18A21.48,21.48,0,0,1,179.59,395.85Z"/><path class="cls-1" d="M252.59,397h10.35V448H252.09l-1.2-4.57a24.31,24.31,0,0,1-16.53,6.09A27.18,27.18,0,0,1,220.64,446a25.05,25.05,0,0,1-9.6-9.72,27.9,27.9,0,0,1-3.47-13.83A27.55,27.55,0,0,1,211,408.76a24.94,24.94,0,0,1,9.6-9.65,27.26,27.26,0,0,1,13.72-3.49,24.42,24.42,0,0,1,16.76,6.23Zm-27.08,35.53a14.43,14.43,0,0,0,19.9,0,14,14,0,0,0-9.95-24,13.38,13.38,0,0,0-10,4,14.65,14.65,0,0,0,0,20Z"/><path class="cls-1" d="M276.19,390.26V377.43H290v12.83Zm0,57.86V397.05H290v51.07Z"/><path class="cls-1" d="M332.25,395.85q8.67,0,13.8,5.8t5.13,15.53v30.94H337.37V419.4q0-11.44-8.91-11.45a10.46,10.46,0,0,0-8.38,3.58Q317,415.1,317,421.29v26.83H303.2V397.05h9.47l2.68,6.33a20.67,20.67,0,0,1,7.36-5.52A22.73,22.73,0,0,1,332.25,395.85Z"/><path class="cls-1" d="M403.82,381.91V395.2H385.39v52.92H371.08V395.2H352.7V381.91Z"/><path class="cls-1" d="M435.45,396.77H440v13h-6q-5.82,0-8.34,2.75t-2.52,9v26.55h-13.8V397.05h8.82l2.44,6.28Q425.89,396.78,435.45,396.77Z"/><path class="cls-1" d="M488.32,397h10.34V448H487.81l-1.2-4.57a24.31,24.31,0,0,1-16.53,6.09A27.18,27.18,0,0,1,456.36,446a25.05,25.05,0,0,1-9.6-9.72,27.89,27.89,0,0,1-3.46-13.83,27.54,27.54,0,0,1,3.46-13.73,24.94,24.94,0,0,1,9.6-9.65,27.26,27.26,0,0,1,13.72-3.49,24.42,24.42,0,0,1,16.76,6.23Zm-27.08,35.53a14.43,14.43,0,0,0,19.9,0,14,14,0,0,0-9.95-24,13.37,13.37,0,0,0-9.95,4,14.62,14.62,0,0,0,0,20Z"/><path class="cls-1" d="M549.41,378.63h13.8v69.49H553l-1.62-4.25a23.91,23.91,0,0,1-16,5.77q-11.6,0-19.21-7.71t-7.62-19.34a28.39,28.39,0,0,1,2-10.74,25.82,25.82,0,0,1,5.57-8.57,25.49,25.49,0,0,1,8.52-5.61,27.8,27.8,0,0,1,10.71-2.05,24.57,24.57,0,0,1,14,4.2Zm-22.84,54a14,14,0,1,0,0-20,14.68,14.68,0,0,0,0,20Z"/><path class="cls-1" d="M626,422.4a28.44,28.44,0,0,1-.28,4.06H587.08a12.92,12.92,0,0,0,4.18,8,12.47,12.47,0,0,0,8.34,2.79A12.93,12.93,0,0,0,606,435.7a11.09,11.09,0,0,0,4.41-4.34h14.5a26.06,26.06,0,0,1-25.3,18.19A26.42,26.42,0,0,1,586.09,446a25.42,25.42,0,0,1-9.53-9.72,29,29,0,0,1,0-27.47,25.07,25.07,0,0,1,9.52-9.7,27.94,27.94,0,0,1,27.31.11,24.85,24.85,0,0,1,9.37,9.72A27.9,27.9,0,0,1,626,422.4Zm-26.41-15a12.07,12.07,0,0,0-7.76,2.54,13.06,13.06,0,0,0-4.39,7.11H612.2a13.76,13.76,0,0,0-4.68-7.15A12.6,12.6,0,0,0,599.6,407.39Z"/></svg>