<svg id="Layer_1" data-name="Layer 1" xmlns="http://www.w3.org/2000/svg" viewBox="0 0 700 700"><defs><style>.cls-1{fill:#fdc314;}</style></defs><path class="cls-1" d="M134,382.86l25.51-30.17-23.66-3-16.73,19.78c-8,9.41-15,9.85-21.48,4.42s-7.24-12.58.71-22L123,322.78l-24-3L82.43,339.26c-13.86,16.38-12.05,33.63,4.18,47.35S120.14,399.24,134,382.86Z"/><path class="cls-1" d="M179.85,313.57c-16.11-13.85-33.43-12.9-47.41,3.37l-16.67,19.41,6.82,23.24,24.86-28.94c8-9.34,15.13-9.73,21.59-4.18s7.06,12.56-1,21.91L151.19,368l6.72,22.89,25.75-30C197.64,344.68,196,327.41,179.85,313.57Z"/><path class="cls-1" d="M234.13,377.18a26.05,26.05,0,0,1-10.19-2,24.82,24.82,0,0,1-8.21-5.45,25.55,25.55,0,0,1-5.4-8.27,26.78,26.78,0,0,1-2-10.26,27.09,27.09,0,0,1,2-10.35,25.47,25.47,0,0,1,5.4-8.3,25,25,0,0,1,8.21-5.45,26.23,26.23,0,0,1,10.19-2A24.12,24.12,0,0,1,258.31,345H247.47a14.21,14.21,0,0,0-5.1-7,13.66,13.66,0,0,0-8.24-2.56,14,14,0,0,0-10.59,4.51,15.79,15.79,0,0,0-4.25,11.28,15.61,15.61,0,0,0,4.25,11.2,14,14,0,0,0,10.59,4.47,13.49,13.49,0,0,0,8.5-2.77,14.11,14.11,0,0,0,5-7.54h10.9a24.8,24.8,0,0,1-8.39,14.95A23.84,23.84,0,0,1,234.13,377.18Z"/><path class="cls-1" d="M287.61,336.66A13.07,13.07,0,0,1,297.94,341q3.82,4.32,3.82,11.7V376.1H291.34V354.43q0-4.4-1.62-6.52a6,6,0,0,0-5.1-2.13,8,8,0,0,0-6.29,2.7,10.83,10.83,0,0,0-2.35,7.37V376.1H265.56V323.66H276v17.49A16.15,16.15,0,0,1,287.61,336.66Z"/><path class="cls-1" d="M342.7,337.49h7.8V376h-8.18l-.91-3.45a18.37,18.37,0,0,1-12.47,4.6,20.55,20.55,0,0,1-10.35-2.65,18.92,18.92,0,0,1-7.25-7.33,21.12,21.12,0,0,1-2.61-10.44,20.83,20.83,0,0,1,2.61-10.37,18.86,18.86,0,0,1,7.25-7.28,20.64,20.64,0,0,1,10.35-2.63,18.37,18.37,0,0,1,12.64,4.71ZM322.26,364.3a10.87,10.87,0,0,0,15,0,11.08,11.08,0,0,0,0-15.12,10.87,10.87,0,0,0-15,0,11,11,0,0,0,0,15.08Z"/><path class="cls-1" d="M360.5,332.44v-9.69h10.39v9.69Zm0,43.66V337.56h10.42V376.1Z"/><path class="cls-1" d="M402.8,336.66A13.19,13.19,0,0,1,413.22,341q3.87,4.37,3.87,11.72V376.1H406.67V354.43q0-8.65-6.72-8.65a7.94,7.94,0,0,0-6.33,2.7,11,11,0,0,0-2.32,7.37V376.1H380.89V337.56H388l2,4.77a15.68,15.68,0,0,1,5.56-4.16A17.13,17.13,0,0,1,402.8,336.66Z"/><path class="cls-1" d="M456.81,326.13v10h-13.9V376.1H432.1V336.17H418.24v-10Z"/><path class="cls-1" d="M480.67,337.35h3.42v9.83h-4.5c-2.92,0-5,.69-6.28,2.07s-1.9,3.65-1.9,6.81v20H461V337.56h6.65l1.85,4.74Q473.47,337.35,480.67,337.35Z"/><path class="cls-1" d="M520.57,337.49h7.8V376h-8.18l-.91-3.45a18.35,18.35,0,0,1-12.47,4.6,20.55,20.55,0,0,1-10.35-2.65,18.92,18.92,0,0,1-7.25-7.33,21.12,21.12,0,0,1-2.61-10.44,20.83,20.83,0,0,1,2.61-10.37,18.86,18.86,0,0,1,7.25-7.28,20.64,20.64,0,0,1,10.35-2.63,18.37,18.37,0,0,1,12.64,4.71ZM500.13,364.3a10.87,10.87,0,0,0,15,0,11.08,11.08,0,0,0,0-15.12,10.87,10.87,0,0,0-15,0,11.06,11.06,0,0,0,0,15.08Z"/><path class="cls-1" d="M566.67,323.66h10.41V376.1h-7.7l-1.22-3.21a18,18,0,0,1-12.09,4.36,19.51,19.51,0,0,1-14.49-5.82,20,20,0,0,1-5.75-14.6,21.38,21.38,0,0,1,1.53-8.1,19.51,19.51,0,0,1,4.2-6.46A19.27,19.27,0,0,1,548,338a21.07,21.07,0,0,1,8.08-1.55,18.57,18.57,0,0,1,10.6,3.17Zm-17.23,40.73a10.86,10.86,0,0,0,15,0,11,11,0,0,0,0-15.08,10.86,10.86,0,0,0-15,0,11.08,11.08,0,0,0,0,15.12Z"/><path class="cls-1" d="M624.47,356.69a22.08,22.08,0,0,1-.21,3.07H595.1a9.68,9.68,0,0,0,3.15,6,9.38,9.38,0,0,0,6.29,2.11,9.82,9.82,0,0,0,4.83-1.19,8.42,8.42,0,0,0,3.32-3.27h10.94a19.64,19.64,0,0,1-19.09,13.73,19.85,19.85,0,0,1-10.19-2.67,19.13,19.13,0,0,1-7.2-7.33,21.92,21.92,0,0,1,0-20.73,18.89,18.89,0,0,1,7.17-7.32,20.06,20.06,0,0,1,10.23-2.65,19.83,19.83,0,0,1,10.38,2.74,18.67,18.67,0,0,1,7.08,7.33A21.07,21.07,0,0,1,624.47,356.69Zm-19.93-11.32a9.12,9.12,0,0,0-5.85,1.91,9.76,9.76,0,0,0-3.31,5.37h18.67a10.41,10.41,0,0,0-3.53-5.4A9.51,9.51,0,0,0,604.54,345.37Z"/></svg>